<svg width="20" height="21" viewBox="0 0 20 21" fill="none" xmlns="http://www.w3.org/2000/svg">
<path d="M9.99 0.5C4.47 0.5 0 4.98 0 10.5C0 16.02 4.47 20.5 9.99 20.5C15.52 20.5 20 16.02 20 10.5C20 4.98 15.52 0.5 9.99 0.5ZM10 18.5C5.58 18.5 2 14.92 2 10.5C2 6.08 5.58 2.5 10 2.5C14.42 2.5 18 6.08 18 10.5C18 14.92 14.42 18.5 10 18.5ZM9.78 5.5H9.72C9.32 5.5 9 5.82 9 6.22V10.94C9 11.29 9.18 11.62 9.49 11.8L13.64 14.29C13.98 14.49 14.42 14.39 14.62 14.05C14.6702 13.969 14.7036 13.8788 14.7182 13.7846C14.7328 13.6905 14.7283 13.5943 14.705 13.502C14.6817 13.4096 14.64 13.3229 14.5824 13.2469C14.5249 13.171 14.4526 13.1074 14.37 13.06L10.5 10.76V6.22C10.5 5.82 10.18 5.5 9.78 5.5Z" fill="#A4663C"/>
</svg>
