<svg width="1440" height="3947" viewBox="0 0 1440 3947" fill="none" xmlns="http://www.w3.org/2000/svg">
<path fill-rule="evenodd" clip-rule="evenodd" d="M-29.1386 3939.62C-36.3761 3936.63 -43.0456 3931.97 -48.7641 3925.91C-40.3681 3925.66 -32.0069 3924.54 -23.777 3922.55C-5.55447 3917.39 11.2615 3906.8 25.0844 3891.78C52.0948 3861.61 64.4366 3828.43 75.6656 3789.48C84.827 3754.69 91.959 3719.19 97.0108 3683.23C99.5399 3671.21 101.158 3659.19 103.687 3647.17C104.497 3644.16 105.711 3640.79 106.419 3637.91C107.127 3635.03 107.329 3636.35 105.306 3637.91C103.283 3639.47 106.925 3636.59 111.78 3635.03C161.451 3660.87 172.478 3746.69 135.149 3829.99C97.82 3913.29 23.8705 3964.5 -28.9362 3940.7L-29.1386 3939.62ZM-52.1025 3923.03C-84.4744 3886.97 -87.4081 3813.77 -55.7443 3742.73C-26.3061 3676.49 25.1856 3631.66 71.4168 3626.25C70.1017 3630.22 69.3935 3634.06 68.8877 3635.51C66.8645 3649.21 65.6505 3662.91 64.4366 3676.49C62.6937 3712.14 59.1466 3747.62 53.8145 3782.75C46.7331 3819.78 38.6401 3852.47 16.789 3883.72C5.36729 3898.78 -9.17831 3910.01 -25.3956 3916.3C-34.0833 3919.54 -43.0357 3921.67 -52.1025 3922.67V3923.03Z" fill="#AF7F58" fill-opacity="0.15"/>
<g clip-path="url(#clip0_12_12)">
<path fill-rule="evenodd" clip-rule="evenodd" d="M222.91 3715.54C219.839 3714.96 216.864 3713.67 214.157 3711.73C217.439 3710.9 220.641 3709.72 223.726 3708.21C230.499 3704.56 236.308 3698.85 240.605 3691.61C248.939 3677.14 251.278 3662.73 252.744 3646.1C253.711 3631.32 253.826 3616.42 253.089 3601.53C253.173 3596.48 252.899 3591.5 252.983 3586.45C253.074 3585.17 253.296 3583.71 253.356 3582.49C253.416 3581.27 253.596 3581.78 252.919 3582.59C252.242 3583.39 253.455 3581.92 255.246 3580.87C276.73 3586.96 287.563 3620.52 279.196 3657.25C270.828 3693.97 245.634 3720.96 223.072 3715.96L222.91 3715.54ZM212.627 3710.86C197.17 3699.16 190.473 3669.97 197.542 3638.67C204.1 3609.49 220.948 3587.01 238.713 3580.83C238.496 3582.54 238.509 3584.15 238.42 3584.77C238.662 3590.46 239.222 3596.07 239.773 3601.64C241.787 3616.12 243.08 3630.7 243.644 3645.29C243.663 3660.79 242.957 3674.63 236.734 3689.09C233.383 3696.13 228.516 3701.91 222.616 3705.84C219.446 3707.89 216.088 3709.53 212.599 3710.71L212.627 3710.86Z" fill="#AF7F58" fill-opacity="0.15"/>
</g>
<g clip-path="url(#clip1_12_12)">
<path fill-rule="evenodd" clip-rule="evenodd" d="M13.604 1396.49C8.92274 1393.93 4.60882 1389.94 0.910059 1384.75C6.34064 1384.54 11.7488 1383.57 17.0719 1381.87C28.8584 1377.45 39.7352 1368.38 48.676 1355.51C66.1465 1329.67 74.1293 1301.26 81.3923 1267.9C87.318 1238.1 91.9311 1207.69 95.1986 1176.89C96.8344 1166.6 97.8813 1156.3 99.5171 1146C100.041 1143.43 100.826 1140.55 101.284 1138.08C101.742 1135.61 101.873 1136.74 100.564 1138.08C99.2554 1139.42 101.611 1136.94 104.752 1135.61C136.879 1157.74 144.011 1231.25 119.867 1302.6C95.722 1373.94 47.8908 1417.8 13.7349 1397.42L13.604 1396.49ZM-1.24923 1382.28C-22.1877 1351.4 -24.0853 1288.7 -3.60481 1227.85C15.4361 1171.13 48.7414 1132.72 78.6441 1128.09C77.7935 1131.49 77.3355 1134.78 77.0083 1136.02C75.6997 1147.75 74.9145 1159.49 74.1293 1171.13C73.002 1201.65 70.7077 1232.04 67.2588 1262.14C62.6785 1293.85 57.4439 1321.85 43.3104 1348.62C35.9227 1361.51 26.5145 1371.13 16.025 1376.52C10.4057 1379.29 4.61526 1381.12 -1.24923 1381.97V1382.28Z" fill="#AF7F58" fill-opacity="0.15"/>
</g>
<g clip-path="url(#clip2_12_12)">
<path fill-rule="evenodd" clip-rule="evenodd" d="M1493.09 679.758C1496.63 678.051 1499.89 675.391 1502.69 671.93C1498.58 671.788 1494.49 671.145 1490.47 670.008C1481.55 667.061 1473.32 661.012 1466.55 652.431C1453.34 635.197 1447.3 616.246 1441.8 594C1437.32 574.125 1433.83 553.845 1431.36 533.304C1430.12 526.438 1429.33 519.572 1428.09 512.706C1427.69 510.989 1427.1 509.067 1426.75 507.419C1426.41 505.771 1426.31 506.526 1427.3 507.419C1428.29 508.311 1426.5 506.663 1424.13 505.771C1399.82 520.533 1394.43 569.557 1412.69 617.139C1430.96 664.721 1467.15 693.97 1492.99 680.376L1493.09 679.758ZM1504.33 670.282C1520.17 649.684 1521.6 607.87 1506.11 567.291C1491.7 529.459 1466.5 503.848 1443.88 500.759C1444.52 503.024 1444.87 505.222 1445.12 506.045C1446.11 513.873 1446.7 521.7 1447.3 529.459C1448.15 549.817 1449.89 570.086 1452.5 590.155C1455.96 611.303 1459.92 629.979 1470.61 647.83C1476.2 656.43 1483.32 662.846 1491.26 666.437C1495.51 668.288 1499.89 669.508 1504.33 670.076V670.282Z" fill="#AF7F58" fill-opacity="0.15"/>
</g>
<g clip-path="url(#clip3_12_12)">
<path fill-rule="evenodd" clip-rule="evenodd" d="M0.574276 146.248C-3.21386 144.852 -6.70473 142.676 -9.6978 139.846C-5.30332 139.729 -0.927004 139.203 3.38055 138.273C12.9183 135.862 21.7198 130.914 28.9548 123.895C43.0921 109.798 49.5519 94.2974 55.4292 76.1007C60.2244 59.8433 63.9573 43.2547 66.6014 26.4528C67.9251 20.8365 68.7722 15.2202 70.096 9.60391C70.5196 8.19984 71.155 6.62725 71.5256 5.27934C71.8962 3.93144 72.0021 4.54923 70.9432 5.27934C69.8842 6.00946 71.7903 4.66152 74.3319 3.93141C100.33 16.0064 106.101 56.1067 86.563 95.0275C67.0249 133.948 28.3195 157.874 0.680197 146.753L0.574276 146.248ZM-11.4451 138.498C-28.3887 121.649 -29.9242 87.4456 -13.3513 54.2533C2.05682 23.3076 29.0078 2.35887 53.2054 -0.168457C52.517 1.68492 52.1464 3.48215 51.8817 4.15611C50.8227 10.5587 50.1873 16.9612 49.5519 23.3076C48.6397 39.9602 46.7831 56.5396 43.9923 72.9556C40.2858 90.2537 36.0499 105.53 24.613 120.132C18.6348 127.167 11.0216 132.415 2.53335 135.352C-2.01382 136.866 -6.69952 137.864 -11.4451 138.329V138.498Z" fill="#AF7F58" fill-opacity="0.15"/>
</g>
<g clip-path="url(#clip4_12_12)">
<path fill-rule="evenodd" clip-rule="evenodd" d="M325.911 3100.89C322.369 3099.18 319.105 3096.52 316.307 3093.06C320.416 3092.92 324.507 3092.28 328.535 3091.14C337.452 3088.19 345.681 3082.14 352.446 3073.56C365.663 3056.33 371.703 3037.38 377.198 3015.13C381.681 2995.26 385.171 2974.98 387.644 2954.44C388.881 2947.57 389.673 2940.7 390.911 2933.84C391.307 2932.12 391.901 2930.2 392.248 2928.55C392.594 2926.9 392.693 2927.66 391.703 2928.55C390.713 2929.44 392.495 2927.8 394.871 2926.9C419.178 2941.67 424.574 2990.69 406.307 3038.27C388.04 3085.85 351.852 3115.1 326.01 3101.51L325.911 3100.89ZM314.673 3091.41C298.832 3070.82 297.396 3029 312.891 2988.42C327.297 2950.59 352.495 2924.98 375.119 2921.89C374.475 2924.16 374.129 2926.35 373.881 2927.18C372.891 2935.01 372.297 2942.83 371.703 2950.59C370.85 2970.95 369.114 2991.22 366.505 3011.29C363.04 3032.44 359.079 3051.11 348.386 3068.96C342.797 3077.56 335.679 3083.98 327.743 3087.57C323.491 3089.42 319.11 3090.64 314.673 3091.21V3091.41Z" fill="#AF7F58" fill-opacity="0.15"/>
</g>
<g clip-path="url(#clip5_12_12)">
<path fill-rule="evenodd" clip-rule="evenodd" d="M1485.4 1897.09C1490.08 1894.53 1494.39 1890.54 1498.09 1885.35C1492.66 1885.14 1487.25 1884.18 1481.93 1882.47C1470.14 1878.05 1459.27 1868.98 1450.32 1856.11C1432.85 1830.27 1424.87 1801.86 1417.61 1768.5C1411.68 1738.7 1407.07 1708.29 1403.8 1677.49C1402.17 1667.2 1401.12 1656.9 1399.48 1646.61C1398.96 1644.03 1398.17 1641.15 1397.72 1638.68C1397.26 1636.21 1397.13 1637.34 1398.44 1638.68C1399.74 1640.02 1397.39 1637.55 1394.25 1636.21C1362.12 1658.34 1354.99 1731.85 1379.13 1803.2C1403.28 1874.54 1451.11 1918.4 1485.27 1898.02L1485.4 1897.09ZM1500.25 1882.88C1521.19 1852 1523.09 1789.3 1502.61 1728.45C1483.56 1671.73 1450.26 1633.32 1420.36 1628.69C1421.21 1632.09 1421.66 1635.38 1421.99 1636.62C1423.3 1648.36 1424.09 1660.09 1424.87 1671.73C1426 1702.25 1428.29 1732.64 1431.74 1762.74C1436.32 1794.45 1441.56 1822.45 1455.69 1849.22C1463.08 1862.11 1472.49 1871.73 1482.98 1877.12C1488.59 1879.89 1494.38 1881.72 1500.25 1882.57V1882.88Z" fill="#AF7F58" fill-opacity="0.15"/>
</g>
<defs>
<clipPath id="clip0_12_12">
<rect width="94.5961" height="130.486" fill="white" transform="matrix(0.976633 -0.214912 0.185059 0.982727 180 3593.9)"/>
</clipPath>
<clipPath id="clip1_12_12">
<rect width="152" height="273.134" fill="white" transform="translate(-18 1128.4)"/>
</clipPath>
<clipPath id="clip2_12_12">
<rect width="115" height="182.158" fill="white" transform="matrix(-1 0 0 1 1517 500.965)"/>
</clipPath>
<clipPath id="clip3_12_12">
<rect width="123" height="149" fill="white" transform="translate(-25)"/>
</clipPath>
<clipPath id="clip4_12_12">
<rect width="115" height="182.158" fill="white" transform="translate(302 2922.1)"/>
</clipPath>
<clipPath id="clip5_12_12">
<rect width="152" height="273.134" fill="white" transform="matrix(-1 0 0 1 1517 1629)"/>
</clipPath>
</defs>
</svg>
