<svg width="1440" height="5956" viewBox="0 0 1440 5956" fill="none" xmlns="http://www.w3.org/2000/svg">
<g clip-path="url(#clip0_2395_6)">
<rect width="1440" height="5956" fill="#221518"/>
<path fill-rule="evenodd" clip-rule="evenodd" d="M-29.1386 5316.62C-36.3761 5313.63 -43.0456 5308.97 -48.7641 5302.91C-40.3681 5302.66 -32.0069 5301.54 -23.777 5299.55C-5.55447 5294.39 11.2615 5283.8 25.0844 5268.78C52.0948 5238.61 64.4366 5205.43 75.6656 5166.48C84.827 5131.69 91.959 5096.19 97.0108 5060.23C99.5399 5048.21 101.158 5036.19 103.687 5024.17C104.497 5021.16 105.711 5017.79 106.419 5014.91C107.127 5012.03 107.329 5013.35 105.306 5014.91C103.283 5016.47 106.925 5013.59 111.78 5012.03C161.451 5037.87 172.478 5123.69 135.149 5206.99C97.82 5290.29 23.8705 5341.5 -28.9362 5317.7L-29.1386 5316.62ZM-52.1025 5300.03C-84.4744 5263.97 -87.4081 5190.77 -55.7443 5119.73C-26.3061 5053.49 25.1856 5008.66 71.4168 5003.25C70.1017 5007.22 69.3935 5011.06 68.8877 5012.51C66.8645 5026.21 65.6505 5039.91 64.4366 5053.49C62.6937 5089.14 59.1466 5124.62 53.8145 5159.75C46.7331 5196.78 38.6401 5229.47 16.789 5260.72C5.36729 5275.78 -9.1783 5287.01 -25.3956 5293.3C-34.0833 5296.54 -43.0357 5298.67 -52.1025 5299.67V5300.03Z" fill="#AF7F58" fill-opacity="0.15"/>
<g clip-path="url(#clip1_2395_6)">
<path fill-rule="evenodd" clip-rule="evenodd" d="M222.91 5092.54C219.839 5091.96 216.864 5090.67 214.157 5088.73C217.439 5087.9 220.641 5086.72 223.726 5085.21C230.499 5081.56 236.308 5075.85 240.605 5068.61C248.939 5054.14 251.278 5039.73 252.744 5023.1C253.711 5008.32 253.826 4993.42 253.089 4978.53C253.173 4973.48 252.899 4968.5 252.983 4963.45C253.074 4962.17 253.296 4960.71 253.356 4959.49C253.416 4958.27 253.596 4958.78 252.919 4959.59C252.242 4960.39 253.455 4958.92 255.246 4957.87C276.73 4963.96 287.563 4997.52 279.196 5034.25C270.828 5070.97 245.634 5097.96 223.072 5092.96L222.91 5092.54ZM212.627 5087.86C197.17 5076.16 190.473 5046.97 197.542 5015.67C204.1 4986.49 220.948 4964.01 238.713 4957.83C238.496 4959.54 238.509 4961.15 238.42 4961.77C238.662 4967.46 239.222 4973.07 239.773 4978.64C241.787 4993.12 243.08 5007.7 243.644 5022.29C243.663 5037.79 242.957 5051.63 236.734 5066.09C233.383 5073.13 228.516 5078.91 222.616 5082.84C219.446 5084.89 216.088 5086.53 212.599 5087.71L212.627 5087.86Z" fill="#AF7F58" fill-opacity="0.15"/>
</g>
<g clip-path="url(#clip2_2395_6)">
<path fill-rule="evenodd" clip-rule="evenodd" d="M13.604 2773.49C8.92274 2770.93 4.60882 2766.94 0.910059 2761.75C6.34064 2761.54 11.7488 2760.57 17.0719 2758.87C28.8584 2754.45 39.7352 2745.38 48.676 2732.51C66.1465 2706.67 74.1293 2678.26 81.3923 2644.9C87.318 2615.1 91.9311 2584.69 95.1986 2553.89C96.8344 2543.6 97.8813 2533.3 99.5171 2523C100.041 2520.43 100.826 2517.55 101.284 2515.08C101.742 2512.61 101.873 2513.74 100.564 2515.08C99.2554 2516.42 101.611 2513.94 104.752 2512.61C136.879 2534.74 144.011 2608.25 119.867 2679.6C95.722 2750.94 47.8908 2794.8 13.7349 2774.42L13.604 2773.49ZM-1.24923 2759.28C-22.1877 2728.4 -24.0853 2665.7 -3.60481 2604.85C15.4361 2548.13 48.7414 2509.72 78.6441 2505.09C77.7935 2508.49 77.3355 2511.78 77.0083 2513.02C75.6997 2524.75 74.9145 2536.49 74.1293 2548.13C73.002 2578.65 70.7077 2609.04 67.2588 2639.14C62.6785 2670.85 57.4439 2698.85 43.3104 2725.62C35.9227 2738.51 26.5145 2748.13 16.025 2753.52C10.4057 2756.29 4.61525 2758.12 -1.24923 2758.97V2759.28Z" fill="#AF7F58" fill-opacity="0.15"/>
</g>
<g clip-path="url(#clip3_2395_6)">
<path fill-rule="evenodd" clip-rule="evenodd" d="M1493.09 2056.76C1496.63 2055.05 1499.89 2052.39 1502.69 2048.93C1498.58 2048.79 1494.49 2048.14 1490.47 2047.01C1481.55 2044.06 1473.32 2038.01 1466.55 2029.43C1453.34 2012.2 1447.3 1993.25 1441.8 1971C1437.32 1951.12 1433.83 1930.84 1431.36 1910.3C1430.12 1903.44 1429.33 1896.57 1428.09 1889.71C1427.69 1887.99 1427.1 1886.07 1426.75 1884.42C1426.41 1882.77 1426.31 1883.53 1427.3 1884.42C1428.29 1885.31 1426.5 1883.66 1424.13 1882.77C1399.82 1897.53 1394.43 1946.56 1412.69 1994.14C1430.96 2041.72 1467.15 2070.97 1492.99 2057.38L1493.09 2056.76ZM1504.33 2047.28C1520.17 2026.68 1521.6 1984.87 1506.11 1944.29C1491.7 1906.46 1466.5 1880.85 1443.88 1877.76C1444.52 1880.02 1444.87 1882.22 1445.12 1883.05C1446.11 1890.87 1446.7 1898.7 1447.3 1906.46C1448.15 1926.82 1449.89 1947.09 1452.5 1967.16C1455.96 1988.3 1459.92 2006.98 1470.61 2024.83C1476.2 2033.43 1483.32 2039.85 1491.26 2043.44C1495.51 2045.29 1499.89 2046.51 1504.33 2047.08V2047.28Z" fill="#AF7F58" fill-opacity="0.15"/>
</g>
<g clip-path="url(#clip4_2395_6)">
<path fill-rule="evenodd" clip-rule="evenodd" d="M0.574276 1523.25C-3.21386 1521.85 -6.70472 1519.68 -9.6978 1516.85C-5.30332 1516.73 -0.927004 1516.2 3.38055 1515.27C12.9183 1512.86 21.7198 1507.91 28.9548 1500.9C43.0921 1486.8 49.5519 1471.3 55.4292 1453.1C60.2244 1436.84 63.9573 1420.25 66.6014 1403.45C67.9251 1397.84 68.7722 1392.22 70.096 1386.6C70.5196 1385.2 71.155 1383.63 71.5256 1382.28C71.8962 1380.93 72.0021 1381.55 70.9432 1382.28C69.8842 1383.01 71.7903 1381.66 74.3319 1380.93C100.33 1393.01 106.101 1433.11 86.563 1472.03C67.0249 1510.95 28.3195 1534.87 0.680196 1523.75L0.574276 1523.25ZM-11.4451 1515.5C-28.3887 1498.65 -29.9242 1464.45 -13.3513 1431.25C2.05682 1400.31 29.0078 1379.36 53.2054 1376.83C52.517 1378.68 52.1464 1380.48 51.8817 1381.16C50.8227 1387.56 50.1873 1393.96 49.5519 1400.31C48.6397 1416.96 46.7831 1433.54 43.9923 1449.96C40.2858 1467.25 36.0499 1482.53 24.613 1497.13C18.6348 1504.17 11.0216 1509.41 2.53335 1512.35C-2.01382 1513.87 -6.69952 1514.86 -11.4451 1515.33V1515.5Z" fill="#AF7F58" fill-opacity="0.15"/>
</g>
<g clip-path="url(#clip5_2395_6)">
<path fill-rule="evenodd" clip-rule="evenodd" d="M325.911 4477.89C322.369 4476.18 319.105 4473.52 316.307 4470.06C320.416 4469.92 324.507 4469.28 328.535 4468.14C337.452 4465.19 345.681 4459.14 352.446 4450.56C365.663 4433.33 371.703 4414.38 377.198 4392.13C381.681 4372.26 385.171 4351.98 387.644 4331.44C388.881 4324.57 389.673 4317.7 390.911 4310.84C391.307 4309.12 391.901 4307.2 392.248 4305.55C392.594 4303.9 392.693 4304.66 391.703 4305.55C390.713 4306.44 392.495 4304.8 394.871 4303.9C419.178 4318.67 424.574 4367.69 406.307 4415.27C388.04 4462.85 351.852 4492.1 326.01 4478.51L325.911 4477.89ZM314.673 4468.41C298.832 4447.82 297.396 4406 312.891 4365.42C327.297 4327.59 352.495 4301.98 375.119 4298.89C374.475 4301.16 374.129 4303.35 373.881 4304.18C372.891 4312.01 372.297 4319.83 371.703 4327.59C370.85 4347.95 369.114 4368.22 366.505 4388.29C363.04 4409.44 359.079 4428.11 348.386 4445.96C342.797 4454.56 335.679 4460.98 327.743 4464.57C323.491 4466.42 319.11 4467.64 314.673 4468.21V4468.41Z" fill="#AF7F58" fill-opacity="0.15"/>
</g>
<g clip-path="url(#clip6_2395_6)">
<path fill-rule="evenodd" clip-rule="evenodd" d="M1485.4 3274.09C1490.08 3271.53 1494.39 3267.54 1498.09 3262.35C1492.66 3262.14 1487.25 3261.18 1481.93 3259.47C1470.14 3255.05 1459.26 3245.98 1450.32 3233.11C1432.85 3207.27 1424.87 3178.86 1417.61 3145.5C1411.68 3115.7 1407.07 3085.29 1403.8 3054.49C1402.17 3044.2 1401.12 3033.9 1399.48 3023.61C1398.96 3021.03 1398.17 3018.15 1397.72 3015.68C1397.26 3013.21 1397.13 3014.34 1398.44 3015.68C1399.74 3017.02 1397.39 3014.55 1394.25 3013.21C1362.12 3035.34 1354.99 3108.85 1379.13 3180.2C1403.28 3251.54 1451.11 3295.4 1485.27 3275.02L1485.4 3274.09ZM1500.25 3259.88C1521.19 3229 1523.09 3166.3 1502.6 3105.45C1483.56 3048.73 1450.26 3010.32 1420.36 3005.69C1421.21 3009.09 1421.66 3012.38 1421.99 3013.62C1423.3 3025.36 1424.09 3037.09 1424.87 3048.73C1426 3079.25 1428.29 3109.64 1431.74 3139.74C1436.32 3171.45 1441.56 3199.45 1455.69 3226.22C1463.08 3239.11 1472.49 3248.73 1482.98 3254.12C1488.59 3256.89 1494.38 3258.72 1500.25 3259.57V3259.88Z" fill="#AF7F58" fill-opacity="0.15"/>
</g>
<path fill-rule="evenodd" clip-rule="evenodd" d="M1272.89 4675.97C1275.35 4675.61 1277.75 4674.49 1279.93 4672.67C1277.32 4671.55 1274.77 4670.07 1272.32 4668.24C1266.95 4663.88 1262.36 4657.45 1259.01 4649.53C1252.51 4633.73 1250.8 4618.46 1249.81 4600.94C1249.2 4585.39 1249.27 4569.79 1250.03 4554.25C1250.02 4548.96 1250.29 4543.77 1250.28 4538.48C1250.22 4537.13 1250.06 4535.59 1250.03 4534.3C1249.99 4533.02 1249.84 4533.54 1250.37 4534.44C1250.91 4535.33 1249.95 4533.69 1248.53 4532.45C1231.29 4537.14 1222.25 4571.41 1228.54 4610.52C1234.82 4649.62 1254.66 4679.86 1272.76 4676.4L1272.89 4675.97ZM1281.17 4671.88C1293.65 4660.85 1299.33 4630.83 1294.03 4597.51C1289.11 4566.45 1275.89 4541.58 1261.75 4533.72C1261.91 4535.52 1261.88 4537.21 1261.94 4537.87C1261.69 4543.8 1261.18 4549.63 1260.67 4555.42C1258.9 4570.42 1257.71 4585.57 1257.09 4600.8C1256.91 4617.02 1257.32 4631.57 1262.13 4647.2C1264.73 4654.83 1268.56 4661.26 1273.23 4665.84C1275.75 4668.24 1278.41 4670.22 1281.19 4671.73L1281.17 4671.88Z" fill="#AF7F58" fill-opacity="0.15"/>
<g clip-path="url(#clip7_2395_6)">
<path fill-rule="evenodd" clip-rule="evenodd" d="M15.8614 4178.28C8.62392 4174.7 1.95439 4169.11 -3.76408 4161.85C4.63188 4161.55 12.9931 4160.2 21.223 4157.81C39.4455 4151.63 56.2615 4138.93 70.0844 4120.92C97.0948 4084.75 109.437 4044.97 120.666 3998.28C129.827 3956.56 136.959 3913.99 142.011 3870.88C144.54 3856.47 146.158 3842.06 148.687 3827.64C149.497 3824.04 150.711 3820.01 151.419 3816.55C152.127 3813.09 152.329 3814.67 150.306 3816.55C148.283 3818.42 151.925 3814.96 156.78 3813.09C206.451 3844.07 217.478 3946.97 180.149 4046.84C142.82 4146.72 68.8705 4208.11 16.0638 4179.58L15.8614 4178.28ZM-7.10246 4158.39C-39.4744 4115.16 -42.4081 4027.39 -10.7443 3942.22C18.6939 3862.81 70.1856 3809.05 116.417 3802.57C115.102 3807.32 114.394 3811.94 113.888 3813.66C111.864 3830.09 110.651 3846.52 109.437 3862.81C107.694 3905.54 104.147 3948.08 98.8145 3990.21C91.7331 4034.59 83.6401 4073.79 61.789 4111.26C50.3673 4129.32 35.8217 4142.78 19.6044 4150.32C10.9167 4154.2 1.96434 4156.76 -7.10246 4157.96V4158.39Z" fill="#AF7F58" fill-opacity="0.15"/>
</g>
</g>
<defs>
<clipPath id="clip0_2395_6">
<rect width="1440" height="5956" fill="white"/>
</clipPath>
<clipPath id="clip1_2395_6">
<rect width="94.5961" height="130.486" fill="white" transform="matrix(0.976633 -0.214912 0.185059 0.982727 180 4970.9)"/>
</clipPath>
<clipPath id="clip2_2395_6">
<rect width="152" height="273.134" fill="white" transform="translate(-18 2505.4)"/>
</clipPath>
<clipPath id="clip3_2395_6">
<rect width="115" height="182.158" fill="white" transform="matrix(-1 0 0 1 1517 1877.96)"/>
</clipPath>
<clipPath id="clip4_2395_6">
<rect width="123" height="149" fill="white" transform="translate(-25 1377)"/>
</clipPath>
<clipPath id="clip5_2395_6">
<rect width="115" height="182.158" fill="white" transform="translate(302 4299.1)"/>
</clipPath>
<clipPath id="clip6_2395_6">
<rect width="152" height="273.134" fill="white" transform="matrix(-1 0 0 1 1517 3006)"/>
</clipPath>
<clipPath id="clip7_2395_6">
<rect width="235" height="382.341" fill="white" transform="translate(-33 3803)"/>
</clipPath>
</defs>
</svg>
