<svg width="16" height="17" viewBox="0 0 16 17" fill="none" xmlns="http://www.w3.org/2000/svg">
<path d="M8 8.5C6.9 8.5 5.95833 8.10833 5.175 7.325C4.39167 6.54167 4 5.6 4 4.5C4 3.4 4.39167 2.45833 5.175 1.675C5.95833 0.891667 6.9 0.5 8 0.5C9.1 0.5 10.0417 0.891667 10.825 1.675C11.6083 2.45833 12 3.4 12 4.5C12 5.6 11.6083 6.54167 10.825 7.325C10.0417 8.10833 9.1 8.5 8 8.5ZM14 16.5H2C1.45 16.5 0.979333 16.3043 0.588 15.913C0.196 15.521 0 15.05 0 14.5V13.7C0 13.1333 0.146 12.6123 0.438 12.137C0.729334 11.6623 1.11667 11.3 1.6 11.05C2.63333 10.5333 3.68333 10.1457 4.75 9.887C5.81667 9.629 6.9 9.5 8 9.5C9.1 9.5 10.1833 9.629 11.25 9.887C12.3167 10.1457 13.3667 10.5333 14.4 11.05C14.8833 11.3 15.2707 11.6623 15.562 12.137C15.854 12.6123 16 13.1333 16 13.7V14.5C16 15.05 15.8043 15.521 15.413 15.913C15.021 16.3043 14.55 16.5 14 16.5ZM2 14.5H14V13.7C14 13.5167 13.9543 13.35 13.863 13.2C13.771 13.05 13.65 12.9333 13.5 12.85C12.6 12.4 11.6917 12.0623 10.775 11.837C9.85833 11.6123 8.93333 11.5 8 11.5C7.06667 11.5 6.14167 11.6123 5.225 11.837C4.30833 12.0623 3.4 12.4 2.5 12.85C2.35 12.9333 2.22933 13.05 2.138 13.2C2.046 13.35 2 13.5167 2 13.7V14.5ZM8 6.5C8.55 6.5 9.021 6.304 9.413 5.912C9.80433 5.52067 10 5.05 10 4.5C10 3.95 9.80433 3.47933 9.413 3.088C9.021 2.696 8.55 2.5 8 2.5C7.45 2.5 6.97933 2.696 6.588 3.088C6.196 3.47933 6 3.95 6 4.5C6 5.05 6.196 5.52067 6.588 5.912C6.97933 6.304 7.45 6.5 8 6.5Z" fill="#A4663C"/>
</svg>
