<svg width="45" height="45" viewBox="0 0 45 45" fill="none" xmlns="http://www.w3.org/2000/svg">
<path d="M29.3125 39.8281L13.5156 24.0781C13.3281 23.8906 13.1956 23.6875 13.1181 23.4687C13.0394 23.25 13 23.0156 13 22.7656C13 22.5156 13.0394 22.2812 13.1181 22.0625C13.1956 21.8437 13.3281 21.6406 13.5156 21.4531L29.3125 5.65625C29.75 5.21875 30.2969 5 30.9531 5C31.6094 5 32.1719 5.23437 32.6406 5.70312C33.1094 6.17187 33.3437 6.71875 33.3437 7.34375C33.3437 7.96875 33.1094 8.51562 32.6406 8.98437L18.8594 22.7656L32.6406 36.5469C33.0781 36.9844 33.2969 37.5231 33.2969 38.1631C33.2969 38.8044 33.0625 39.3594 32.5937 39.8281C32.125 40.2969 31.5781 40.5312 30.9531 40.5312C30.3281 40.5312 29.7812 40.2969 29.3125 39.8281Z" fill="#F8E4BE"/>
</svg>
