<svg width="37" height="36" viewBox="0 0 37 36" fill="none" xmlns="http://www.w3.org/2000/svg">
<g clip-path="url(#clip0_12_569)">
<path d="M14.5844 30.4375C14.5844 30.7713 14.4854 31.0975 14.3 31.375C14.1145 31.6525 13.851 31.8688 13.5426 31.9965C13.2343 32.1243 12.895 32.1577 12.5676 32.0926C12.2403 32.0275 11.9396 31.8667 11.7036 31.6307C11.4676 31.3947 11.3069 31.0941 11.2418 30.7667C11.1767 30.4394 11.2101 30.1001 11.3378 29.7917C11.4655 29.4834 11.6818 29.2198 11.9593 29.0344C12.2368 28.849 12.5631 28.75 12.8969 28.75C13.3444 28.75 13.7736 28.9278 14.0901 29.2443C14.4066 29.5607 14.5844 29.9899 14.5844 30.4375ZM27.5219 28.75C27.1881 28.75 26.8618 28.849 26.5843 29.0344C26.3068 29.2198 26.0905 29.4834 25.9628 29.7917C25.8351 30.1001 25.8017 30.4394 25.8668 30.7667C25.9319 31.0941 26.0926 31.3947 26.3286 31.6307C26.5646 31.8667 26.8653 32.0275 27.1926 32.0926C27.52 32.1577 27.8593 32.1243 28.1676 31.9965C28.476 31.8688 28.7395 31.6525 28.925 31.375C29.1104 31.0975 29.2094 30.7713 29.2094 30.4375C29.2094 29.9899 29.0316 29.5607 28.7151 29.2443C28.3986 28.9278 27.9694 28.75 27.5219 28.75ZM33.3719 10.3422L29.6593 23.3359C29.4848 23.9215 29.1269 24.4357 28.6383 24.8027C28.1498 25.1698 27.5563 25.3704 26.9453 25.375H13.4734C12.8624 25.3704 12.2689 25.1698 11.7804 24.8027C11.2918 24.4357 10.9339 23.9215 10.7594 23.3359L7.06091 10.3562V10.3281L5.68279 5.53281C5.6468 5.41524 5.57417 5.31225 5.47551 5.23889C5.37684 5.16552 5.2573 5.12561 5.13435 5.125H2.77185C2.62267 5.125 2.47959 5.06574 2.3741 4.96025C2.26861 4.85476 2.20935 4.71168 2.20935 4.5625C2.20935 4.41332 2.26861 4.27024 2.3741 4.16475C2.47959 4.05926 2.62267 4 2.77185 4H5.13435C5.50192 4.00038 5.85948 4.11977 6.15353 4.34031C6.44758 4.56085 6.66232 4.87068 6.7656 5.22344L8.01716 9.625H32.8234C32.9109 9.62387 32.9974 9.64371 33.0757 9.68286C33.154 9.722 33.2218 9.77931 33.2734 9.85C33.3268 9.91882 33.3635 9.99909 33.3806 10.0845C33.3977 10.1699 33.3947 10.2581 33.3719 10.3422ZM32.0781 10.75H8.3406L11.8422 23.0266C11.9454 23.3793 12.1602 23.6891 12.4542 23.9097C12.7483 24.1302 13.1058 24.2496 13.4734 24.25H26.9453C27.3129 24.2496 27.6704 24.1302 27.9645 23.9097C28.2585 23.6891 28.4733 23.3793 28.5765 23.0266L32.0781 10.75Z" fill="#F8E4BE" stroke="#F8E4BE" stroke-width="0.5"/>
<path d="M23.9835 13.8981C23.5968 13.5353 23.1288 13.2705 22.6187 13.1258C22.1085 12.9812 21.5712 12.9609 21.0516 13.0667C19.8262 13.2827 18.7002 13.8801 17.8343 14.7737C16.9374 15.6398 16.3381 16.7679 16.1224 17.9959C16.0174 18.5147 16.0381 19.0511 16.1828 19.5603C16.3274 20.0695 16.5918 20.5367 16.9538 20.9229C17.2562 21.2129 17.6133 21.4398 18.0044 21.5901C18.3955 21.7405 18.8126 21.8113 19.2314 21.7985C20.7003 21.7394 22.0887 21.1114 23.1029 20.0473C25.0407 18.109 25.4342 15.3493 23.9835 13.8981ZM16.6094 18.0697C16.8102 16.9471 17.3592 15.9161 18.1787 15.123C18.9705 14.3018 20.002 13.7524 21.1254 13.5537C21.3175 13.5247 21.5115 13.5099 21.7059 13.5095C22.0599 13.4972 22.4128 13.5557 22.7439 13.6816C23.0751 13.8074 23.3777 13.9981 23.6342 14.2424C23.6548 14.2614 23.673 14.2829 23.6883 14.3064C23.3819 14.572 23.0281 14.7773 22.6455 14.9115C22.0928 15.1102 21.5941 15.4354 21.1893 15.8609C20.7638 16.2657 20.4387 16.7643 20.2399 17.317C20.0677 17.8097 19.7792 18.2536 19.3987 18.6108C19.0401 18.9896 18.5967 19.2779 18.1049 19.452C17.682 19.6026 17.2902 19.8294 16.9489 20.121C16.5981 19.4984 16.478 18.7721 16.6094 18.0697ZM22.7537 19.698C21.0073 21.4443 18.5624 21.8379 17.3031 20.5785C17.2822 20.5584 17.2625 20.537 17.244 20.5146C17.5528 20.2497 17.9081 20.0446 18.2918 19.9095C18.843 19.7076 19.3409 19.3829 19.748 18.9601C20.1725 18.5544 20.4975 18.0561 20.6974 17.504C20.8696 17.0113 21.1581 16.5674 21.5386 16.2102C21.8959 15.8297 22.3397 15.5411 22.8324 15.369C23.2534 15.2151 23.6433 14.9869 23.9835 14.695C24.7903 16.0291 24.3131 18.1386 22.7537 19.698Z" fill="#F8E4BE" stroke="#F8E4BE" stroke-width="0.5"/>
</g>
<defs>
<clipPath id="clip0_12_569">
<rect width="36" height="36" fill="white" transform="translate(0.209351)"/>
</clipPath>
</defs>
</svg>
